<?xml version="1.0" standalone="no"?><!DOCTYPE svg PUBLIC "-//W3C//DTD SVG 1.1//EN" "http://www.w3.org/Graphics/SVG/1.1/DTD/svg11.dtd"><svg t="1683438995746" class="icon" viewBox="0 0 1024 1024" version="1.1" xmlns="http://www.w3.org/2000/svg" p-id="8268" width="16" height="16" xmlns:xlink="http://www.w3.org/1999/xlink"><path d="M518.92 971.017c198.55 2.754 309.32-77.347 370.9-162.234 63.612-87.675 84.11-199.203 64.39-305.84-71.38-385.677-435.29-382.411-435.29-382.411S155.03 117.266 83.65 502.96c-19.738 106.637 0.777 218.147 64.389 305.84 61.563 84.869 172.332 164.97 370.882 162.216z" fill="#FDC794" p-id="8269"></path><path d="M79.43 531.862c-7.997-7.574-17.39-12.129-27.524-12.129C23.234 519.733 0 554.708 0 597.839c0 43.132 23.234 78.107 51.889 78.107 12.129 0 23.145-6.532 31.973-17.02a417.28 417.28 0 0 1-4.431-127.064z m941.445-67.566c-9.94-41.967-40.607-70.603-68.484-63.947-8.67 2.065-15.855 7.591-21.628 15.095a570.968 570.968 0 0 1 23.446 87.517c2.737 14.777 4.608 29.643 5.791 44.526 9.18 5.014 18.926 7.097 28.39 4.837 27.877-6.638 42.425-46.062 32.485-88.028z" fill="#F9A671" p-id="8270"></path><path d="M245.407 300.103a17.602 17.602 0 0 1-12.482-5.173l-88.276-88.276a17.638 17.638 0 1 1 24.964-24.965l88.276 88.276a17.638 17.638 0 0 1-12.482 30.138z m52.983-52.966a17.655 17.655 0 0 1-15.819-9.763l-52.965-105.931a17.655 17.655 0 0 1 31.585-15.802l52.965 105.931a17.655 17.655 0 0 1-15.766 25.565z m70.603-35.31a17.638 17.638 0 0 1-16.737-12.076L316.946 93.82a17.655 17.655 0 1 1 33.492-11.176l35.31 105.93a17.655 17.655 0 0 1-16.755 23.253z m88.258-17.655a17.655 17.655 0 0 1-17.39-14.76L422.206 73.48a17.638 17.638 0 0 1 14.512-20.304 17.55 17.55 0 0 1 20.304 14.513l17.655 105.931a17.638 17.638 0 0 1-17.426 20.55z m70.639 0a17.655 17.655 0 0 1-17.656-17.656V70.586a17.655 17.655 0 1 1 35.31 0v105.93a17.655 17.655 0 0 1-17.654 17.656z m70.62 0a17.655 17.655 0 0 1-16.737-23.252l35.31-105.931a17.655 17.655 0 1 1 33.492 11.175l-35.31 105.931a17.655 17.655 0 0 1-16.755 12.077z m70.621 17.655a17.655 17.655 0 0 1-16.737-23.252l35.31-105.931a17.655 17.655 0 1 1 33.492 11.176l-35.31 105.93a17.655 17.655 0 0 1-16.755 12.077z m52.948 35.31a17.655 17.655 0 0 1-15.766-25.547l52.965-105.931a17.655 17.655 0 0 1 31.585 15.801l-52.965 105.931a17.655 17.655 0 0 1-15.82 9.746z" fill="#5E5F62" p-id="8271"></path><path d="M264.828 459.087a105.931 105.931 0 1 0 211.862 0 105.931 105.931 0 1 0-211.862 0z" fill="#FFFFFF" p-id="8272"></path><path d="M476.69 459.087a141.241 141.241 0 1 0 282.482 0 141.241 141.241 0 1 0-282.482 0z" fill="#FFFFFF" p-id="8273"></path><path d="M335.449 459.087a35.31 35.31 0 1 0 70.62 0 35.31 35.31 0 1 0-70.62 0zM564.966 459.087a52.966 52.966 0 1 0 105.93 0 52.966 52.966 0 1 0-105.93 0z" fill="#7F5B53" p-id="8274"></path><path d="M371.112 896.282a17.655 17.655 0 0 1-15.643-25.811A368.34 368.34 0 0 1 572.91 688.11a368.234 368.234 0 0 1 282.695 24.964 17.655 17.655 0 1 1-16.313 31.32c-79.537-41.472-170.355-49.505-255.77-22.599a333.259 333.259 0 0 0-196.75 165.006 17.62 17.62 0 0 1-15.66 9.48z" fill="#F9A671" p-id="8275"></path><path d="M794.483 776.88a17.655 17.655 0 1 1 0-35.31c29.201 0 52.965-23.764 52.965-52.965a17.655 17.655 0 1 1 35.31 0c0 48.675-39.6 88.276-88.275 88.276zM406.069 918.123c-48.675 0-88.276-39.6-88.276-88.276a17.655 17.655 0 1 1 35.31 0c0 29.202 23.764 52.966 52.966 52.966a17.655 17.655 0 1 1 0 35.31z" fill="#F9A671" p-id="8276"></path></svg>